# xmcd
#
# Track frame offsets:
#       150
#       14720
#       27645
#       37977
#       48985
#       64337
#       74707
#       85627
#       97880
#       111510
#       119725
#       132062
#       145087
#       155105
#       165355
#       177787
#
# Disc length: 2516 seconds
#
# Revision: 1
# Processed by: cddbd v1.4PL0 Copyright (c) Steve Scherf et al.
# Submitted via: MusiCat 1.1
#
DISCID=e309d210
DTITLE=The Jet Blacks - Disco de Ouro
DYEAR=1900
DGENRE=
TTITLE0=Apache
TTITLE1=Theme For Young Lovers
TTITLE2=Guitar Twist
TTITLE3=The Milionare
TTITLE4=Riders in The Sky
TTITLE5=Veneno
TTITLE6=Gerônimo
TTITLE7=Tell Star
TTITLE8=Cavaleiro Solitário
TTITLE9=Jet Black
TTITLE10=Dance With The (Guitar Man)
TTITLE11=Chapeuzinho Vermelho
TTITLE12=The House of The Rising Sun
TTITLE13=Blue Star
TTITLE14=Midnight
TTITLE15=Pepeline
EXTD=0\n\n\n
EXTT0=
EXTT1=
EXTT2=
EXTT3=
EXTT4=
EXTT5=
EXTT6=
EXTT7=
EXTT8=
EXTT9=
EXTT10=
EXTT11=
EXTT12=
EXTT13=
EXTT14=
EXTT15=
PLAYORDER=
